<svg width="39" height="37" viewBox="0 0 39 37" fill="none" xmlns="http://www.w3.org/2000/svg">
<path d="M19.8556 2.3125C15.4366 2.3644 11.2137 4.08652 8.08871 7.11109C4.96376 10.1357 3.18448 14.2229 3.13086 18.5C3.18448 22.7771 4.96376 26.8643 8.08871 29.8889C11.2137 32.9135 15.4366 34.6356 19.8556 34.6875C24.2746 34.6356 28.4975 32.9135 31.6225 29.8889C34.7474 26.8643 36.5267 22.7771 36.5803 18.5C36.5267 14.2229 34.7474 10.1357 31.6225 7.11109C28.4975 4.08652 24.2746 2.3644 19.8556 2.3125ZM29.4126 19.6562H21.0502V27.75H18.661V19.6562H10.2986V17.3438H18.661V9.25H21.0502V17.3438H29.4126V19.6562Z" fill="#F3553C"/>
</svg>
