<svg width="34" height="34" viewBox="0 0 34 34" fill="none" xmlns="http://www.w3.org/2000/svg">
<path d="M17 28.3335C23.2333 28.3335 28.3333 23.2335 28.3333 17.0002C28.3333 10.7668 23.2333 5.66683 17 5.66683C10.7666 5.66683 5.66665 10.7668 5.66665 17.0002C5.66665 23.2335 10.7666 28.3335 17 28.3335ZM17 2.8335C24.7916 2.8335 31.1666 9.2085 31.1666 17.0002C31.1666 24.7918 24.7916 31.1668 17 31.1668C9.20831 31.1668 2.83331 24.7918 2.83331 17.0002C2.83331 9.2085 9.20831 2.8335 17 2.8335ZM24.0833 19.6918L23.0916 21.5335L15.5833 17.4252V9.91683H17.7083V16.1502L24.0833 19.6918Z" fill="black"/>
</svg>
