<svg width="30" height="30" viewBox="0 0 30 30" fill="none" xmlns="http://www.w3.org/2000/svg">
<path d="M15.0002 26.3333C21.2335 26.3333 26.3335 21.2333 26.3335 15C26.3335 8.76667 21.2335 3.66667 15.0002 3.66667C8.76683 3.66667 3.66683 8.76667 3.66683 15C3.66683 21.2333 8.76683 26.3333 15.0002 26.3333ZM15.0002 0.833332C22.7918 0.833332 29.1668 7.20833 29.1668 15C29.1668 22.7917 22.7918 29.1667 15.0002 29.1667C7.2085 29.1667 0.833496 22.7917 0.833496 15C0.833496 7.20833 7.2085 0.833332 15.0002 0.833332ZM22.0835 17.6917L21.0918 19.5333L13.5835 15.425V7.91667H15.7085V14.15L22.0835 17.6917Z" fill="black"/>
</svg>
