<svg width="105" height="105" viewBox="0 0 105 105" fill="none" xmlns="http://www.w3.org/2000/svg">
<path d="M45.2443 97.6075C45.3924 95.0784 45.5406 90.9151 45.5406 89.5792C45.5406 88.2407 45.6214 88.1668 45.2443 84.0088C44.9344 79.9194 44.4091 78.3592 44.0992 76.7224C43.8756 75.0882 43.3449 73.1583 42.5097 70.7058C41.7526 68.2506 41.071 66.9147 40.0041 64.5361C38.9453 62.1601 36.9732 58.8891 35.1547 55.6181C33.4116 52.4237 31.7412 48.6353 31.0569 44.9181C30.3025 40.6835 30.3752 35.7784 30.5315 33.0275C30.6824 30.2819 31.1296 23.2938 31.4394 19.6506C14.601 26.1186 3 41.2802 3 59.1848C3 81.4057 21.2744 99.7618 44.7863 101.993C44.9344 102.138 45.0907 100.131 45.2443 97.6075ZM59.7611 97.6102C59.604 94.9355 59.5016 92.2579 59.454 89.5792C59.454 88.2407 59.3812 88.1668 59.7611 84.0088C60.0629 79.9194 60.5936 78.3592 60.898 76.7224C61.127 75.0882 61.6578 73.1583 62.4876 70.7058C63.2473 68.2506 63.9317 66.9147 64.9931 64.5361C66.0546 62.1601 68.0268 58.8891 69.8453 55.6181C71.5884 52.4237 73.2615 48.6353 73.9431 44.9181C74.6975 40.6835 74.6274 35.7784 74.4712 33.0275C74.3176 30.2819 73.865 23.2938 73.5632 19.6506C90.3963 26.1186 102 41.2802 102 59.1848C102 81.4057 83.7229 99.7618 60.2137 101.993C60.0629 102.138 59.9147 100.134 59.7611 97.6102ZM43.0678 5.64001L42.766 39.9655ZM62.6704 5.64001L62.3687 39.9655ZM52.9176 3V39.9655Z" fill="white"/>
<path d="M43.0678 5.64001L42.766 39.9655M62.6704 5.64001L62.3687 39.9655M52.9176 3V39.9655M45.2443 97.6075C45.3924 95.0784 45.5406 90.9151 45.5406 89.5792C45.5406 88.2407 45.6214 88.1668 45.2443 84.0088C44.9344 79.9194 44.4091 78.3592 44.0992 76.7224C43.8756 75.0882 43.3449 73.1583 42.5097 70.7058C41.7526 68.2506 41.071 66.9147 40.0041 64.5361C38.9453 62.1601 36.9732 58.8891 35.1547 55.6181C33.4116 52.4237 31.7412 48.6353 31.0569 44.9181C30.3025 40.6835 30.3752 35.7784 30.5315 33.0275C30.6824 30.2819 31.1296 23.2938 31.4394 19.6506C14.601 26.1186 3 41.2802 3 59.1848C3 81.4057 21.2744 99.7618 44.7863 101.993C44.9344 102.138 45.0907 100.131 45.2443 97.6075ZM59.7611 97.6102C59.604 94.9355 59.5016 92.2579 59.454 89.5792C59.454 88.2407 59.3812 88.1668 59.7611 84.0088C60.0629 79.9194 60.5936 78.3592 60.898 76.7224C61.127 75.0882 61.6578 73.1583 62.4876 70.7058C63.2473 68.2506 63.9317 66.9147 64.9931 64.5361C66.0546 62.1601 68.0268 58.8891 69.8453 55.6181C71.5884 52.4237 73.2615 48.6353 73.9431 44.9181C74.6975 40.6835 74.6274 35.7784 74.4712 33.0275C74.3176 30.2819 73.865 23.2938 73.5632 19.6506C90.3963 26.1186 102 41.2802 102 59.1848C102 81.4057 83.7229 99.7618 60.2137 101.993C60.0629 102.138 59.9147 100.134 59.7611 97.6102Z" stroke="#F3553C" stroke-width="4.96774" stroke-linecap="round" stroke-linejoin="round"/>
</svg>
