<svg width="31" height="31" viewBox="0 0 31 31" fill="none" xmlns="http://www.w3.org/2000/svg">
<path d="M13.228 29.6246C13.2744 28.8326 13.3208 27.529 13.3208 27.1107C13.3208 26.6915 13.3461 26.6684 13.228 25.3664C13.131 24.0859 12.9665 23.5973 12.8695 23.0848C12.7994 22.5731 12.6332 21.9688 12.3717 21.2008C12.1347 20.432 11.9212 20.0137 11.5872 19.2689C11.2556 18.5249 10.6381 17.5006 10.0686 16.4764C9.52281 15.4761 8.99976 14.2898 8.78548 13.1259C8.54927 11.7999 8.57205 10.2639 8.62098 9.40255C8.66822 8.54282 8.80826 6.35462 8.90528 5.21381C3.63264 7.23916 0 11.9867 0 17.5932C0 24.5513 5.72229 30.2991 13.0846 30.9977C13.131 31.0431 13.1799 30.4149 13.228 29.6246ZM17.7737 29.6254C17.7245 28.7879 17.6924 27.9495 17.6775 27.1107C17.6775 26.6915 17.6547 26.6684 17.7737 25.3664C17.8682 24.0859 18.0344 23.5973 18.1297 23.0848C18.2014 22.5731 18.3676 21.9688 18.6274 21.2008C18.8653 20.432 19.0796 20.0137 19.412 19.2689C19.7444 18.5249 20.3619 17.5006 20.9314 16.4764C21.4772 15.4761 22.0011 14.2898 22.2145 13.1259C22.4507 11.7999 22.4288 10.2639 22.3799 9.40255C22.3318 8.54282 22.19 6.35462 22.0956 5.21381C27.3665 7.23916 31 11.9867 31 17.5932C31 24.5513 25.2769 30.2991 17.9154 30.9977C17.8682 31.0431 17.8218 30.4157 17.7737 29.6254ZM12.5465 0.826671L12.452 11.575L12.5465 0.826671ZM18.6847 0.826671L18.5902 11.575L18.6847 0.826671ZM15.6308 0V11.575V0Z" fill="#F3553C"/>
<path d="M12.5465 0.826671L12.452 11.575M18.6847 0.826671L18.5902 11.575M15.6308 0V11.575M13.228 29.6246C13.2744 28.8326 13.3208 27.529 13.3208 27.1107C13.3208 26.6915 13.3461 26.6684 13.228 25.3664C13.131 24.0859 12.9665 23.5973 12.8695 23.0848C12.7994 22.5731 12.6332 21.9688 12.3717 21.2008C12.1347 20.432 11.9212 20.0137 11.5872 19.2689C11.2556 18.5249 10.6381 17.5006 10.0686 16.4764C9.52281 15.4761 8.99976 14.2898 8.78548 13.1259C8.54927 11.7999 8.57205 10.2639 8.62098 9.40255C8.66822 8.54282 8.80826 6.35462 8.90528 5.21381C3.63264 7.23916 0 11.9867 0 17.5932C0 24.5513 5.72229 30.2991 13.0846 30.9977C13.131 31.0431 13.1799 30.4149 13.228 29.6246ZM17.7737 29.6254C17.7245 28.7879 17.6924 27.9495 17.6775 27.1107C17.6775 26.6915 17.6547 26.6684 17.7737 25.3664C17.8682 24.0859 18.0344 23.5973 18.1297 23.0848C18.2014 22.5731 18.3676 21.9688 18.6274 21.2008C18.8653 20.432 19.0796 20.0137 19.412 19.2689C19.7444 18.5249 20.3619 17.5006 20.9314 16.4764C21.4772 15.4761 22.0011 14.2898 22.2145 13.1259C22.4507 11.7999 22.4288 10.2639 22.3799 9.40255C22.3318 8.54282 22.19 6.35462 22.0956 5.21381C27.3665 7.23916 31 11.9867 31 17.5932C31 24.5513 25.2769 30.2991 17.9154 30.9977C17.8682 31.0431 17.8218 30.4157 17.7737 29.6254Z" stroke="#F3553C" stroke-width="2" stroke-linecap="round" stroke-linejoin="round"/>
</svg>
