<svg width="83" height="83" viewBox="0 0 83 83" fill="none" xmlns="http://www.w3.org/2000/svg">
<path d="M35.8566 76.5836C35.9719 74.6165 36.0872 71.3784 36.0872 70.3394C36.0872 69.2984 36.15 69.2409 35.8566 66.0069C35.6157 62.8262 35.2071 61.6127 34.9661 60.3396C34.7922 59.0686 34.3794 57.5676 33.7298 55.66C33.1409 53.7504 32.6108 52.7114 31.781 50.8614C30.9575 49.0134 29.4236 46.4693 28.0092 43.9252C26.6534 41.4406 25.3543 38.4941 24.822 35.603C24.2353 32.3094 24.2919 28.4943 24.4134 26.3547C24.5307 24.2193 24.8786 18.7841 25.1196 15.9504C12.023 20.9811 3 32.7735 3 46.6993C3 63.9823 17.2134 78.2592 35.5004 79.9942C35.6157 80.1072 35.7372 78.5466 35.8566 76.5836ZM47.1475 76.5857C47.0254 74.5054 46.9457 72.4228 46.9086 70.3394C46.9086 69.2984 46.8521 69.2409 47.1475 66.0069C47.3822 62.8262 47.795 61.6127 48.0318 60.3396C48.2099 59.0686 48.6227 57.5676 49.2681 55.66C49.859 53.7504 50.3913 52.7114 51.2169 50.8614C52.0425 49.0134 53.5764 46.4693 54.9908 43.9252C56.3466 41.4406 57.6478 38.4941 58.178 35.603C58.7647 32.3094 58.7102 28.4943 58.5887 26.3547C58.4693 24.2193 58.1172 18.7841 57.8825 15.9504C70.9749 20.9811 80 32.7735 80 46.6993C80 63.9823 65.7845 78.2592 47.4996 79.9942C47.3822 80.1072 47.267 78.5487 47.1475 76.5857ZM34.1638 5.05334L33.9291 31.7509ZM49.4103 5.05334L49.1756 31.7509ZM41.8248 3V31.7509Z" fill="#F3553C"/>
<path d="M34.1638 5.05334L33.9291 31.7509M49.4103 5.05334L49.1756 31.7509M41.8248 3V31.7509M35.8566 76.5836C35.9719 74.6165 36.0872 71.3784 36.0872 70.3394C36.0872 69.2984 36.15 69.2409 35.8566 66.0069C35.6157 62.8262 35.2071 61.6127 34.9661 60.3396C34.7922 59.0686 34.3794 57.5676 33.7298 55.66C33.1409 53.7504 32.6108 52.7114 31.781 50.8614C30.9575 49.0134 29.4236 46.4693 28.0092 43.9252C26.6534 41.4406 25.3543 38.4941 24.822 35.603C24.2353 32.3094 24.2919 28.4943 24.4134 26.3547C24.5307 24.2193 24.8786 18.7841 25.1196 15.9504C12.023 20.9811 3 32.7735 3 46.6993C3 63.9823 17.2134 78.2592 35.5004 79.9942C35.6157 80.1072 35.7372 78.5466 35.8566 76.5836ZM47.1475 76.5857C47.0254 74.5054 46.9457 72.4228 46.9086 70.3394C46.9086 69.2984 46.8521 69.2409 47.1475 66.0069C47.3822 62.8262 47.795 61.6127 48.0318 60.3396C48.2099 59.0686 48.6227 57.5676 49.2681 55.66C49.859 53.7504 50.3913 52.7114 51.2169 50.8614C52.0425 49.0134 53.5764 46.4693 54.9908 43.9252C56.3466 41.4406 57.6478 38.4941 58.178 35.603C58.7647 32.3094 58.7102 28.4943 58.5887 26.3547C58.4693 24.2193 58.1172 18.7841 57.8825 15.9504C70.9749 20.9811 80 32.7735 80 46.6993C80 63.9823 65.7845 78.2592 47.4996 79.9942C47.3822 80.1072 47.267 78.5487 47.1475 76.5857Z" stroke="#F3553C" stroke-width="4.96774" stroke-linecap="round" stroke-linejoin="round"/>
</svg>
