<svg width="134" height="160" viewBox="0 0 134 160" fill="none" xmlns="http://www.w3.org/2000/svg">
<path fill-rule="evenodd" clip-rule="evenodd" d="M9.26081 61.7691C10.4182 47.7812 16.7913 34.7393 27.1156 25.2308C37.44 15.7224 50.9613 10.4421 64.9971 10.4375H68.0031C82.0388 10.4421 95.5601 15.7224 105.884 25.2308C116.209 34.7393 122.582 47.7812 123.739 61.7691C125.024 77.3865 120.202 92.8934 110.289 105.029L76.9376 145.819C75.6735 147.366 74.0812 148.613 72.2761 149.469C70.4709 150.325 68.498 150.769 66.5001 150.769C64.5021 150.769 62.5292 150.325 60.7241 149.469C58.9189 148.613 57.3266 147.366 56.0626 145.819L22.7182 105.029C12.8023 92.8944 7.97836 77.3874 9.26081 61.7691ZM66.5001 36.5313C57.7341 36.5313 49.3272 40.0135 43.1287 46.212C36.9302 52.4105 33.448 60.8174 33.448 69.5833C33.448 78.3493 36.9302 86.7562 43.1287 92.9547C49.3272 99.1532 57.7341 102.635 66.5001 102.635C75.266 102.635 83.6729 99.1532 89.8714 92.9547C96.0699 86.7562 99.5521 78.3493 99.5521 69.5833C99.5521 60.8174 96.0699 52.4105 89.8714 46.212C83.6729 40.0135 75.266 36.5313 66.5001 36.5313Z" fill="#F3553C" stroke="white" stroke-width="2"/>
<circle cx="66.5" cy="65.5" r="46.5" fill="white"/>
<path d="M63 48.7997V30.5726C63 29.3641 63.4741 28.205 64.318 27.3505C65.1619 26.4959 66.3065 26.0158 67.5 26.0158C68.6935 26.0158 69.8381 26.4959 70.682 27.3505C71.5259 28.205 72 29.3641 72 30.5726V48.7997C72 50.0082 71.5259 51.1673 70.682 52.0218C69.8381 52.8764 68.6935 53.3565 67.5 53.3565C66.3065 53.3565 65.1619 52.8764 64.318 52.0218C63.4741 51.1673 63 50.0082 63 48.7997ZM85.5 30.1929C85.4005 28.9843 84.8311 27.8653 83.9168 27.0819C83.0026 26.2986 81.8185 25.9151 80.625 26.0158C79.4315 26.1165 78.3264 26.6932 77.5529 27.619C76.7793 28.5447 76.4005 29.7438 76.5 30.9523L78 48.9744C78 51.7943 76.8938 54.4987 74.9246 56.4927C72.9555 58.4867 70.2848 59.6069 67.5 59.6069C64.7152 59.6069 62.0445 58.4867 60.0754 56.4927C58.1062 54.4987 57 51.7943 57 48.9744L58.5 30.9523C58.5492 30.3539 58.4816 29.7515 58.301 29.1796C58.1203 28.6077 57.8302 28.0774 57.4471 27.619C57.0641 27.1606 56.5956 26.7831 56.0685 26.508C55.5414 26.2329 54.9659 26.0657 54.375 26.0158C53.7841 25.9659 53.1892 26.0344 52.6244 26.2174C52.0596 26.4003 51.5359 26.6941 51.0832 27.0819C50.6305 27.4698 50.2577 27.9442 49.986 28.478C49.7144 29.0117 49.5492 29.5944 49.5 30.1929L48 48.42V48.7997C48.0072 53.2422 49.4908 57.5529 52.2117 61.0378C54.9327 64.5226 58.7328 66.9786 63 68.0103V100.443C63 101.652 63.4741 102.811 64.318 103.665C65.1619 104.52 66.3065 105 67.5 105C68.6935 105 69.8381 104.52 70.682 103.665C71.5259 102.811 72 101.652 72 100.443V68.0103C76.2672 66.9786 80.0673 64.5226 82.7883 61.0378C85.5093 57.5529 86.9928 53.2422 87 48.7997V48.42L85.5 30.1929Z" fill="#F3553C"/>
</svg>
