<svg width="60" height="60" viewBox="0 0 60 60" fill="none" xmlns="http://www.w3.org/2000/svg">
<path d="M20 26.9001H18.55C16.5713 26.8285 14.5989 27.1645 12.7554 27.8869C10.9119 28.6094 9.23656 29.7031 7.83333 31.1001L7.43333 31.5667V45.3667H14.2333V37.5334L15.15 36.5001L15.5667 36.0167C17.7365 33.7876 20.438 32.1472 23.4167 31.2501C21.9259 30.1147 20.7498 28.6174 20 26.9001Z" fill="black"/>
<path d="M52.2333 31.0498C50.8301 29.6528 49.1547 28.5591 47.3112 27.8367C45.4677 27.1142 43.4954 26.7782 41.5167 26.8498C40.9098 26.853 40.3035 26.8864 39.7 26.9498C38.9362 28.5609 37.7923 29.9623 36.3667 31.0331C39.547 31.9121 42.4278 33.6406 44.7 36.0331L45.1167 36.4998L46.0167 37.5331V45.3831H52.5833V31.5164L52.2333 31.0498Z" fill="black"/>
<path d="M18.5 23.6502H19.0167C18.7766 21.5889 19.1383 19.5022 20.058 17.642C20.9778 15.7817 22.4163 14.2275 24.2 13.1668C23.5534 12.1791 22.6614 11.3762 21.6113 10.8367C20.5612 10.2973 19.3891 10.0398 18.2096 10.0895C17.0301 10.1392 15.8837 10.4944 14.8827 11.1203C13.8817 11.7462 13.0604 12.6213 12.4993 13.6599C11.9381 14.6986 11.6563 15.8651 11.6814 17.0454C11.7066 18.2257 12.0379 19.3792 12.6428 20.393C13.2477 21.4068 14.1055 22.2461 15.1322 22.8288C16.159 23.4114 17.3195 23.7174 18.5 23.7168V23.6502Z" fill="black"/>
<path d="M40.7167 22.4001C40.7356 22.7832 40.7356 23.167 40.7167 23.5501C41.0364 23.6013 41.3595 23.6292 41.6833 23.6334H42C43.1754 23.5708 44.3145 23.2048 45.3064 22.5712C46.2984 21.9376 47.1093 21.058 47.6604 20.018C48.2115 18.9779 48.4839 17.8129 48.4511 16.6363C48.4182 15.4597 48.0813 14.3117 47.4731 13.304C46.8649 12.2963 46.0061 11.4633 44.9804 10.886C43.9546 10.3087 42.7969 10.0068 41.6199 10.0098C40.4429 10.0127 39.2867 10.3204 38.2639 10.9029C37.241 11.4853 36.3865 12.3227 35.7833 13.3334C37.2918 14.3183 38.5322 15.6623 39.3932 17.2447C40.2543 18.8272 40.709 20.5986 40.7167 22.4001Z" fill="black"/>
<path d="M29.7833 29.8668C33.8979 29.8668 37.2333 26.5313 37.2333 22.4168C37.2333 18.3023 33.8979 14.9668 29.7833 14.9668C25.6688 14.9668 22.3333 18.3023 22.3333 22.4168C22.3333 26.5313 25.6688 29.8668 29.7833 29.8668Z" fill="black"/>
<path d="M30.1833 33.8333C28.0068 33.7464 25.8352 34.1002 23.7989 34.8735C21.7626 35.6468 19.9035 36.8236 18.3333 38.3333L17.9167 38.8V49.35C17.9232 49.6936 17.9973 50.0326 18.1349 50.3476C18.2724 50.6626 18.4707 50.9474 18.7183 51.1857C18.9659 51.4241 19.2581 51.6113 19.5781 51.7367C19.8981 51.8621 20.2397 51.9233 20.5833 51.9166H39.7333C40.077 51.9233 40.4186 51.8621 40.7386 51.7367C41.0586 51.6113 41.3507 51.4241 41.5984 51.1857C41.846 50.9474 42.0443 50.6626 42.1818 50.3476C42.3194 50.0326 42.3935 49.6936 42.4 49.35V38.8333L42 38.3333C40.4405 36.8182 38.588 35.6375 36.5561 34.8637C34.5242 34.0899 32.3556 33.7393 30.1833 33.8333Z" fill="black"/>
</svg>
