<svg width="60" height="65" viewBox="0 0 60 65" fill="none" xmlns="http://www.w3.org/2000/svg">
<path d="M24.2045 16.2498C27.1752 16.2498 29.5833 13.8247 29.5833 10.8332C29.5833 7.84163 27.1752 5.4165 24.2045 5.4165C21.2339 5.4165 18.8258 7.84163 18.8258 10.8332C18.8258 13.8247 21.2339 16.2498 24.2045 16.2498Z" fill="black"/>
<path d="M45.6659 40.0943C45.5441 39.4806 45.215 38.9283 44.7345 38.5313C44.254 38.1343 43.6518 37.9172 43.0303 37.9168H31.915L30.7613 29.7918H43.0303V24.3752H29.9948L29.5564 21.2822C29.4645 20.6371 29.1447 20.047 28.6557 19.6202C28.1666 19.1933 27.5411 18.9584 26.8939 18.9585H24.2046C23.8195 18.9598 23.4392 19.0441 23.0891 19.2057C22.7391 19.3673 22.4275 19.6026 22.1753 19.8956C21.923 20.1886 21.736 20.5326 21.6268 20.9044C21.5176 21.2763 21.4887 21.6674 21.5421 22.0514L23.9007 38.686C24.0897 39.9739 24.7309 41.1509 25.7079 42.0036C26.6848 42.8562 27.9329 43.3281 29.2256 43.3335H40.825L43.0814 54.6977C43.3342 55.9625 44.4369 56.8752 45.7197 56.8752H53.7879V51.4585H47.9223L45.6659 40.0943Z" fill="black"/>
<path d="M33.6443 47.3957C31.6569 51.3932 27.5932 54.1665 22.8598 54.1665C19.6512 54.1629 16.575 52.8777 14.3062 50.5929C12.0373 48.3081 10.7611 45.2102 10.7576 41.979C10.761 39.552 11.4839 37.1813 12.8337 35.1707C14.1834 33.1601 16.0985 31.601 18.3336 30.6934L17.5564 25.209C10.5021 27.4759 5.37878 34.1357 5.37878 41.979C5.37878 51.6857 13.2211 59.5832 22.8598 59.5832C25.8578 59.5782 28.8042 58.7968 31.4157 57.3142C34.0273 55.8315 36.2164 53.6974 37.7725 51.1169L37.0356 47.3957H33.6443Z" fill="black"/>
</svg>
