<svg width="156" height="66" viewBox="0 0 156 66" fill="none" xmlns="http://www.w3.org/2000/svg">
<mask id="mask0_55_1339" style="mask-type:luminance" maskUnits="userSpaceOnUse" x="0" y="0" width="156" height="66">
<path d="M156 0.0429688H0V65.0986H156V0.0429688Z" fill="white"/>
</mask>
<g mask="url(#mask0_55_1339)">
<path d="M137.407 63.5976C133.713 63.3458 130.356 62.6074 127.336 61.3817C124.365 60.1591 122.13 58.9017 120.633 57.6095L124.963 51.0821C126.106 51.9675 127.763 52.8455 129.934 53.7156C132.106 54.5861 134.358 55.1011 136.692 55.2595C138.442 55.3787 139.751 55.2342 140.619 54.826C141.488 54.4173 141.958 53.8119 142.03 53.0089C142.095 52.2908 141.827 51.7411 141.225 51.3602C140.624 50.9793 139.699 50.6609 138.45 50.4062L134.995 49.6609C130.917 48.7881 127.834 47.4518 125.746 45.6519C123.662 43.8097 122.747 41.4734 123.003 38.6428C123.166 36.8261 123.827 35.1921 124.985 33.7407C126.192 32.2926 127.931 31.1782 130.202 30.3977C132.522 29.6205 135.457 29.3526 139.005 29.5942C142.505 29.8325 145.581 30.4457 148.23 31.4337C150.933 32.3828 152.926 33.3261 154.211 34.2638L150.611 40.841C149.875 40.3234 148.866 39.8508 147.583 39.4235C146.354 38.9572 145.019 38.5688 143.58 38.2583C142.141 37.9478 140.765 37.7478 139.452 37.6585C136.39 37.45 134.799 38.0006 134.681 39.3103C134.624 39.944 134.868 40.492 135.414 40.9541C135.962 41.3741 136.598 41.6511 137.319 41.7853L141.71 42.7218C146.559 43.732 149.833 45.1238 151.532 46.8973C153.231 48.6707 153.966 50.8248 153.738 53.3595C153.558 55.3455 152.881 57.1695 151.703 58.8321C150.53 60.4526 148.778 61.7149 146.447 62.6188C144.115 63.5226 141.102 63.8489 137.407 63.5976Z" fill="#FFB53C"/>
<path d="M1.94284 59.1393V18.7114H35.4423V26.975H14.3771V34.4757H32.5897V42.7393H14.3771V50.8757H35.8811V59.1393H1.94284ZM69.3577 62.4447L64.7497 57.6137C62.4577 58.8428 59.6051 59.4571 56.192 59.4571C51.6571 59.4571 48.1219 58.4401 45.5863 56.406C43.0507 54.3296 41.7828 51.6172 41.7828 48.2695C41.7828 45.2184 42.8556 42.8664 45.0011 41.2137C47.1467 39.5187 50.2674 38.6711 54.3634 38.6711H63.36V37.654C63.36 36.4251 62.7263 35.514 61.4583 34.9207C60.1903 34.2851 58.3863 33.9672 56.0457 33.9672C54.2415 33.9672 52.5592 34.1579 50.9988 34.5393C49.4872 34.8783 48.0244 35.408 46.6103 36.1285L43.7577 28.7548C45.6107 27.8649 47.683 27.2292 49.9748 26.8479C52.2667 26.4241 54.5584 26.2122 56.8503 26.2122C62.5068 26.2122 66.944 27.2716 70.1623 29.3905C73.3805 31.467 74.9897 34.2638 74.9897 37.7812V52.2742L78.4274 55.8974L69.3577 62.4447ZM58.0206 51.575C59.8737 51.575 61.2388 51.0664 62.1166 50.0494C62.9943 48.99 63.4331 47.9305 63.4331 46.8711V45.0912H58.0206C56.509 45.0912 55.363 45.3667 54.5828 45.9176C53.8514 46.4685 53.4857 47.2313 53.4857 48.206C53.4857 49.2654 53.9002 50.0916 54.7291 50.685C55.6068 51.2785 56.704 51.575 58.0206 51.575ZM102.678 59.5842C99.8497 59.5842 97.3383 59.1815 95.144 58.3765C92.9497 57.5715 91.2188 56.2788 89.9508 54.499C88.732 52.7191 88.1223 50.3672 88.1223 47.4432V35.2385H82.0514V27.6742H88.4148V18.7114H100.118V27.6742H110.065V35.3021H100.191V47.1253C100.191 48.7357 100.63 49.8373 101.507 50.4308C102.434 51.0242 103.531 51.3207 104.799 51.3207C105.579 51.3207 106.433 51.2571 107.359 51.13C108.334 50.9606 109.09 50.7272 109.626 50.4308L111.601 57.9315C110.382 58.525 108.968 58.9486 107.359 59.2029C105.798 59.4571 104.238 59.5842 102.678 59.5842Z" fill="#FFB53C"/>
<path d="M119.196 25.8422C119.394 26.0436 119.659 26.1863 119.955 26.2505C120.251 26.3146 120.562 26.297 120.846 26.2002C121.355 26.0281 133.354 21.8533 135.6 13.8804C137.166 8.42557 133.334 2.8797 127.057 1.51844C120.781 0.157174 114.399 3.48788 112.834 8.93652C110.505 16.8977 118.839 25.4825 119.196 25.8422ZM126.347 3.99172C131.055 5.01288 133.929 9.17117 132.752 13.2694C131.206 18.764 123.517 22.3314 120.759 23.4502C118.931 21.3355 114.071 15.0454 115.678 9.55992C116.854 5.46787 121.638 2.97054 126.347 3.99172Z" fill="#FFB53C"/>
<path d="M126.673 6.46459L124.234 5.93555L122.042 13.5674L124.482 14.0964L126.673 6.46459Z" fill="#FFB53C"/>
<path d="M130.458 13.1399L123.139 11.5527L122.531 13.6727L129.849 15.2598L130.458 13.1399Z" fill="#FFB53C"/>
</g>
</svg>
