<svg width="134" height="64" viewBox="0 0 134 64" fill="none" xmlns="http://www.w3.org/2000/svg">
<mask id="mask0_363_4379" style="mask-type:luminance" maskUnits="userSpaceOnUse" x="0" y="0" width="134" height="64">
<path d="M134 0H0V64H134V0Z" fill="white"/>
</mask>
<g mask="url(#mask0_363_4379)">
<path d="M118.03 62.5244C114.857 62.2767 111.973 61.5502 109.379 60.3445C106.827 59.1417 104.908 57.9047 103.621 56.6335L107.341 50.212C108.322 51.0831 109.746 51.9468 111.611 52.8028C113.476 53.6592 115.411 54.1658 117.416 54.3217C118.919 54.4389 120.043 54.2967 120.789 53.8952C121.535 53.4931 121.939 52.8975 122.001 52.1075C122.057 51.4011 121.826 50.8603 121.31 50.4856C120.793 50.1108 119.999 49.7977 118.926 49.5471L115.958 48.8138C112.455 47.9553 109.807 46.6406 108.013 44.8699C106.223 43.0577 105.438 40.7592 105.657 37.9745C105.797 36.1873 106.365 34.5798 107.36 33.152C108.397 31.7274 109.89 30.6311 111.841 29.8632C113.834 29.0986 116.355 28.8351 119.403 29.0728C122.409 29.3072 125.051 29.9104 127.327 30.8825C129.648 31.8161 131.361 32.7442 132.464 33.6666L129.372 40.1371C128.739 39.6278 127.873 39.163 126.771 38.7426C125.715 38.2839 124.569 37.9018 123.332 37.5963C122.096 37.2908 120.914 37.0941 119.787 37.0062C117.156 36.8011 115.79 37.3428 115.688 38.6312C115.639 39.2546 115.849 39.7937 116.318 40.2484C116.789 40.6615 117.335 40.9341 117.955 41.066L121.726 41.9873C125.892 42.9812 128.704 44.3504 130.163 46.0951C131.622 47.8397 132.253 49.9589 132.058 52.4525C131.903 54.4062 131.321 56.2006 130.31 57.8363C129.302 59.4304 127.798 60.6723 125.795 61.5615C123.792 62.4506 121.204 62.7716 118.03 62.5244Z" fill="#F3553C"/>
<path d="M1.66797 58.139V18.3672H30.4431V26.4967H12.3487V33.8757H27.9928V42.0052H12.3487V50.0096H30.8201V58.139H1.66797ZM59.5756 61.3908L55.6174 56.6382C53.6487 57.8474 51.1984 58.4517 48.2666 58.4517C44.3713 58.4517 41.3346 57.4512 39.1566 55.4501C36.9785 53.4074 35.8895 50.739 35.8895 47.4457C35.8895 44.444 36.811 42.1302 38.6539 40.5043C40.4969 38.8368 43.1775 38.003 46.6959 38.003H54.4237V37.0024C54.4237 35.7934 53.8794 34.8971 52.7902 34.3134C51.701 33.6881 50.1514 33.3754 48.1409 33.3754C46.5912 33.3754 45.1462 33.563 43.8058 33.9382C42.5074 34.2718 41.2508 34.7929 40.0361 35.5016L37.5859 28.2476C39.1775 27.3721 40.9576 26.7468 42.9262 26.3716C44.8948 25.9547 46.8634 25.7462 48.832 25.7462C53.6909 25.7462 57.5023 26.7885 60.2667 28.873C63.0311 30.9157 64.4133 33.6672 64.4133 37.1275V51.3853L67.3663 54.9498L59.5756 61.3908ZM49.8373 50.6974C51.4291 50.6974 52.6017 50.1972 53.3556 49.1966C54.1096 48.1544 54.4865 47.1121 54.4865 46.0699V44.3189H49.8373C48.5389 44.3189 47.5545 44.5899 46.8844 45.1319C46.2561 45.6738 45.942 46.4242 45.942 47.3831C45.942 48.4253 46.298 49.2381 47.01 49.822C47.764 50.4058 48.7064 50.6974 49.8373 50.6974ZM88.1966 58.5768C85.7675 58.5768 83.6102 58.1806 81.7254 57.3886C79.8405 56.5967 78.3538 55.325 77.2646 53.574C76.2176 51.8231 75.6939 49.5093 75.6939 46.6327V34.6261H70.4792V27.1845H75.9452V18.3672H85.9977V27.1845H94.5422V34.6887H86.0605V46.32C86.0605 47.9043 86.4375 48.988 87.1914 49.5718C87.987 50.1556 88.9295 50.4473 90.0186 50.4473C90.6886 50.4473 91.422 50.3848 92.2176 50.2597C93.0555 50.0931 93.7044 49.8635 94.1653 49.5718L95.8616 56.9509C94.8147 57.5347 93.5998 57.9514 92.2176 58.2016C90.8771 58.4517 89.5371 58.5768 88.1966 58.5768Z" fill="#F3553C"/>
<path d="M102.387 25.381C102.557 25.5792 102.785 25.7196 103.04 25.7827C103.293 25.8458 103.561 25.8285 103.805 25.7332C104.242 25.564 114.549 21.4569 116.478 13.6133C117.823 8.24702 114.531 2.79115 109.14 1.45197C103.748 0.112797 98.2667 3.38946 96.9228 8.74969C94.9216 16.5817 102.081 25.0272 102.387 25.381ZM108.53 3.88512C112.574 4.88971 115.043 8.98053 114.032 13.0122C112.704 18.4177 106.099 21.9272 103.73 23.0279C102.16 20.9475 97.9854 14.7594 99.3657 9.36296C100.375 5.33732 104.485 2.88051 108.53 3.88512Z" fill="#F3553C"/>
<path d="M108.806 6.31733L106.711 5.79688L104.829 13.3049L106.924 13.8253L108.806 6.31733Z" fill="#F3553C"/>
<path d="M112.059 12.8856L105.773 11.3242L105.251 13.4098L111.537 14.9711L112.059 12.8856Z" fill="#F3553C"/>
</g>
</svg>
