<svg width="62" height="62" viewBox="0 0 62 62" fill="none" xmlns="http://www.w3.org/2000/svg">
<path d="M10.3333 7.75H51.6667C52.3518 7.75 53.0089 8.02217 53.4934 8.50664C53.9778 8.99111 54.25 9.64819 54.25 10.3333V51.6667C54.25 52.3518 53.9778 53.0089 53.4934 53.4934C53.0089 53.9778 52.3518 54.25 51.6667 54.25H10.3333C9.64819 54.25 8.99111 53.9778 8.50664 53.4934C8.02217 53.0089 7.75 52.3518 7.75 51.6667V10.3333C7.75 9.64819 8.02217 8.99111 8.50664 8.50664C8.99111 8.02217 9.64819 7.75 10.3333 7.75ZM12.9167 12.9167V49.0833H49.0833V12.9167H12.9167ZM23.25 18.0833H32.2917C34.6897 18.0833 36.9894 19.0359 38.6851 20.7316C40.3807 22.4272 41.3333 24.727 41.3333 27.125C41.3333 29.523 40.3807 31.8228 38.6851 33.5184C36.9894 35.2141 34.6897 36.1667 32.2917 36.1667H28.4167V43.9167H23.25V18.0833ZM28.4167 23.25V31H32.2917C33.3194 31 34.305 30.5917 35.0317 29.865C35.7584 29.1383 36.1667 28.1527 36.1667 27.125C36.1667 26.0973 35.7584 25.1117 35.0317 24.385C34.305 23.6583 33.3194 23.25 32.2917 23.25H28.4167Z" fill="black"/>
</svg>
