<svg width="92" height="92" viewBox="0 0 92 92" fill="none" xmlns="http://www.w3.org/2000/svg">
<path d="M46 52.9998C49.5649 52.9998 52.9838 51.5836 55.5046 49.0628C58.0254 46.542 59.4416 43.1231 59.4416 39.5582C59.4416 35.9932 58.0254 32.5743 55.5046 30.0535C52.9838 27.5328 49.5649 26.1166 46 26.1166C42.4351 26.1166 39.0161 27.5328 36.4954 30.0535C33.9746 32.5743 32.5584 35.9932 32.5584 39.5582C32.5584 43.1231 33.9746 46.542 36.4954 49.0628C39.0161 51.5836 42.4351 52.9998 46 52.9998ZM46 52.9998C51.6044 53.0002 57.0159 55.0469 61.2178 58.7554C65.4197 62.464 68.123 67.5792 68.8198 73.1401C62.4381 78.5274 54.3516 81.4751 46 81.4584C37.6484 81.4751 29.5619 78.5274 23.1802 73.1401M46 52.9998C40.3956 53.0002 34.9841 55.0469 30.7822 58.7554C26.5803 62.464 23.877 67.5792 23.1802 73.1401M23.1802 73.1401C17.6135 68.4587 13.6211 62.1787 11.7443 55.1516C9.86754 48.1244 10.1972 40.6901 12.6886 33.8567C15.18 27.0232 19.7126 21.1212 25.6718 16.951C31.631 12.7807 38.7285 10.5439 46.0019 10.5439C53.2754 10.5439 60.3729 12.7807 66.3321 16.951C72.2913 21.1212 76.8239 27.0232 79.3152 33.8567C81.8066 40.6901 82.1363 48.1244 80.2595 55.1516C78.3828 62.1787 74.3904 68.4587 68.8237 73.1401" stroke="black" stroke-width="1.5" stroke-linecap="round" stroke-linejoin="round"/>
</svg>
