<svg width="59" height="59" viewBox="0 0 59 59" fill="none" xmlns="http://www.w3.org/2000/svg">
<path d="M13.2857 7C12.1491 7 11.059 7.45435 10.2553 8.2631C9.45153 9.07185 9 10.1688 9 11.3125V48.6875C9 49.8312 9.45153 50.9281 10.2553 51.7369C11.059 52.5456 12.1491 53 13.2857 53H33.2857C34.4224 53 35.5124 52.5456 36.3162 51.7369C37.1199 50.9281 37.5714 49.8312 37.5714 48.6875V44.375C37.5714 43.9938 37.4209 43.6281 37.153 43.3585C36.8851 43.089 36.5217 42.9375 36.1429 42.9375C34.9629 42.9375 34.2086 42.6442 33.6971 42.259C33.1771 41.868 32.7733 41.271 32.4857 40.4679C31.8743 38.7774 31.8571 36.5378 31.8571 34.3125C31.8571 34.1234 31.82 33.9362 31.7479 33.7615C31.6758 33.5869 31.5702 33.4283 31.4371 33.2948L30.62 32.4696L27.1543 28.9823C25.82 27.6396 25.4286 26.7397 25.3543 26.2366C25.2971 25.8341 25.4171 25.5639 25.7029 25.2879C26.3143 24.6985 26.7514 24.2989 27.2457 24.1781C27.54 24.1034 28.2114 24.0516 29.4171 25.2649L37.9886 33.8899C38.2564 34.1598 38.6199 34.3116 38.999 34.3119C39.1867 34.312 39.3726 34.2749 39.5461 34.2028C39.7195 34.1306 39.8772 34.0248 40.01 33.8913C40.1428 33.7578 40.2482 33.5994 40.3202 33.4249C40.3921 33.2505 40.4292 33.0635 40.4294 32.8746C40.4295 32.6857 40.3927 32.4986 40.3209 32.3241C40.2492 32.1495 40.1441 31.9909 40.0114 31.8573L37.5714 29.4049V20.5326L44.8857 27.8926C45.2841 28.293 45.6002 28.7685 45.8159 29.2919C46.0317 29.8153 46.1427 30.3764 46.1429 30.943V51.5625C46.1429 51.9437 46.2934 52.3094 46.5613 52.579C46.8292 52.8485 47.1926 53 47.5714 53C47.9503 53 48.3137 52.8485 48.5816 52.579C48.8495 52.3094 49 51.9437 49 51.5625V30.943C48.9996 29.0376 48.2473 27.2104 46.9086 25.8629L37.5714 16.4674V11.3125C37.5714 10.1688 37.1199 9.07185 36.3162 8.2631C35.5124 7.45435 34.4224 7 33.2857 7H13.2857ZM34.7143 17.0625V26.5299L31.44 23.2323C29.7886 21.5705 28.1429 20.9984 26.5686 21.3836C26.2592 21.46 25.9592 21.5709 25.6743 21.7143C24.3971 21.3413 23.0512 21.2726 21.743 21.5134C20.4349 21.7543 19.2004 22.2981 18.1371 23.1019C17.0739 23.9057 16.2111 24.9474 15.6171 26.1447C15.023 27.3419 14.7139 28.6618 14.7143 30C14.7142 31.6673 15.1943 33.299 16.0967 34.6974C16.999 36.0959 18.2848 37.2012 19.7984 37.8795C21.3121 38.5579 22.9887 38.7802 24.6253 38.5196C26.2619 38.259 27.7884 37.5267 29.02 36.4112C29.0686 38.073 29.2343 39.89 29.8 41.4511C30.2229 42.6213 30.8971 43.7396 31.9829 44.5561L32 44.5734C31.13 44.8487 30.3699 45.3961 29.8304 46.136C29.2908 46.8759 28.9999 47.7698 29 48.6875V50.125H17.5714V48.6875C17.5714 47.5438 17.1199 46.4469 16.3162 45.6381C15.5124 44.8293 14.4224 44.375 13.2857 44.375H11.8571V15.625H13.2857C14.4224 15.625 15.5124 15.1706 16.3162 14.3619C17.1199 13.5531 17.5714 12.4562 17.5714 11.3125V9.875H29V11.3125C29 12.4562 29.4515 13.5531 30.2553 14.3619C31.059 15.1706 32.1491 15.625 33.2857 15.625H34.7143V17.0625ZM34.7143 48.6875V48.7134C34.7075 49.0901 34.5541 49.4491 34.2869 49.7132C34.0197 49.9772 33.6602 50.1251 33.2857 50.125H31.8571V48.6875C31.8571 48.3063 32.0077 47.9406 32.2756 47.671C32.5435 47.4015 32.9068 47.25 33.2857 47.25H34.7143V48.6875ZM17.5714 30C17.5714 28.5377 18.1251 27.1304 19.1198 26.0643C20.1145 24.9983 21.4754 24.3536 22.9257 24.2615C22.5714 24.9227 22.3914 25.7277 22.5286 26.6564C22.7314 28.0421 23.6086 29.4825 25.1314 31.0149L27.7229 33.6225C26.9789 34.545 25.9693 35.213 24.8327 35.5346C23.6962 35.8562 22.4885 35.8157 21.3758 35.4186C20.2631 35.0216 19.2999 34.2874 18.6186 33.3171C17.9374 32.3468 17.5716 31.188 17.5714 30ZM14.7143 9.875V11.3125C14.7143 11.6937 14.5638 12.0594 14.2959 12.329C14.028 12.5985 13.6646 12.75 13.2857 12.75H11.8571V11.3125C11.8571 10.9313 12.0077 10.5656 12.2756 10.296C12.5435 10.0265 12.9068 9.875 13.2857 9.875H14.7143ZM11.8571 47.25H13.2857C13.6646 47.25 14.028 47.4015 14.2959 47.671C14.5638 47.9406 14.7143 48.3063 14.7143 48.6875V50.125H13.2857C12.9068 50.125 12.5435 49.9735 12.2756 49.704C12.0077 49.4344 11.8571 49.0687 11.8571 48.6875V47.25ZM34.7143 12.75H33.2857C32.9068 12.75 32.5435 12.5985 32.2756 12.329C32.0077 12.0594 31.8571 11.6937 31.8571 11.3125V9.875H33.2857C33.6646 9.875 34.028 10.0265 34.2959 10.296C34.5638 10.5656 34.7143 10.9313 34.7143 11.3125V12.75Z" fill="black"/>
</svg>
