<svg width="33" height="33" viewBox="0 0 33 33" fill="none" xmlns="http://www.w3.org/2000/svg">
<path fill-rule="evenodd" clip-rule="evenodd" d="M22.4469 20.4863L29.8444 27.8838C30.1044 28.144 30.2504 28.4968 30.2503 28.8646C30.2502 29.2325 30.1039 29.5852 29.8437 29.8452C29.5835 30.1052 29.2307 30.2512 28.8629 30.2511C28.495 30.251 28.1423 30.1047 27.8823 29.8445L20.4848 22.447C18.2734 24.1598 15.4926 24.9658 12.708 24.7011C9.92339 24.4364 7.34424 23.1208 5.49521 21.022C3.64618 18.9232 2.66616 16.1988 2.75452 13.403C2.84288 10.6073 3.99298 7.95019 5.97085 5.97232C7.94873 3.99444 10.6058 2.84434 13.4015 2.75598C16.1973 2.66762 18.9217 3.64764 21.0205 5.49667C23.1193 7.34571 24.4349 9.92485 24.6997 12.7094C24.9644 15.494 24.1584 18.2749 22.4455 20.4863M13.75 22.0001C15.9381 22.0001 18.0365 21.1309 19.5837 19.5838C21.1309 18.0366 22 15.9382 22 13.7501C22 11.5621 21.1309 9.46368 19.5837 7.91651C18.0365 6.36933 15.9381 5.50014 13.75 5.50014C11.562 5.50014 9.46359 6.36933 7.91642 7.91651C6.36924 9.46368 5.50005 11.5621 5.50005 13.7501C5.50005 15.9382 6.36924 18.0366 7.91642 19.5838C9.46359 21.1309 11.562 22.0001 13.75 22.0001Z" fill="#FF9E00"/>
</svg>
