<svg width="40" height="40" viewBox="0 0 40 40" fill="none" xmlns="http://www.w3.org/2000/svg">
<path fill-rule="evenodd" clip-rule="evenodd" d="M27.2083 24.8319L36.175 33.7986C36.4902 34.1139 36.6671 34.5416 36.667 34.9875C36.6668 35.4333 36.4896 35.8609 36.1742 36.1761C35.8588 36.4912 35.4311 36.6682 34.9852 36.668C34.5394 36.6679 34.1118 36.4906 33.7967 36.1752L24.83 27.2086C22.1495 29.2847 18.7788 30.2617 15.4035 29.9408C12.0283 29.6199 8.90205 28.0253 6.6608 25.4812C4.41955 22.9372 3.23165 19.6349 3.33875 16.2461C3.44586 12.8574 4.83992 9.63666 7.23734 7.23923C9.63477 4.84181 12.8555 3.44775 16.2442 3.34064C19.633 3.23354 22.9353 4.42145 25.4793 6.6627C28.0234 8.90394 29.618 12.0302 29.9389 15.4054C30.2598 18.7807 29.2828 22.1514 27.2067 24.8319M16.6667 26.6669C19.3188 26.6669 21.8624 25.6133 23.7377 23.738C25.6131 21.8626 26.6667 19.3191 26.6667 16.6669C26.6667 14.0147 25.6131 11.4712 23.7377 9.59582C21.8624 7.72046 19.3188 6.66689 16.6667 6.66689C14.0145 6.66689 11.471 7.72046 9.5956 9.59582C7.72023 11.4712 6.66667 14.0147 6.66667 16.6669C6.66667 19.3191 7.72023 21.8626 9.5956 23.738C11.471 25.6133 14.0145 26.6669 16.6667 26.6669Z" fill="black"/>
</svg>
