<svg width="19" height="20" viewBox="0 0 19 20" fill="none" xmlns="http://www.w3.org/2000/svg">
<path d="M6.55713 3.9575C7.71855 1.87483 8.2988 0.833496 9.16688 0.833496C10.035 0.833496 10.6152 1.87483 11.7766 3.9575L12.0773 4.4965C12.4073 5.08866 12.5723 5.38475 12.829 5.58C13.0856 5.77525 13.4065 5.84766 14.0481 5.9925L14.6311 6.1245C16.8861 6.63508 18.0127 6.88991 18.2813 7.7525C18.549 8.61416 17.7808 9.51341 16.2435 11.311L15.8457 11.7757C15.4094 12.2863 15.1903 12.5421 15.0922 12.8574C14.9941 13.1737 15.0271 13.5147 15.0931 14.1957L15.1536 14.8163C15.3855 17.2152 15.502 18.4142 14.7998 18.9468C14.0976 19.4794 13.0416 18.9936 10.9315 18.0219L10.3842 17.7707C9.78472 17.4939 9.48497 17.3564 9.16688 17.3564C8.8488 17.3564 8.54905 17.4939 7.94955 17.7707L7.40322 18.0219C5.29213 18.9936 4.23613 19.4794 3.53488 18.9477C2.8318 18.4142 2.94822 17.2152 3.18013 14.8163L3.24063 14.1967C3.30663 13.5147 3.33963 13.1737 3.24063 12.8583C3.14347 12.5421 2.92438 12.2863 2.48805 11.7767L2.09022 11.311C0.552966 9.51433 -0.215201 8.61508 0.0524654 7.7525C0.320132 6.88991 1.44855 6.63416 3.70355 6.1245L4.28655 5.9925C4.9273 5.84766 5.24722 5.77525 5.5048 5.58C5.76238 5.38475 5.92647 5.08866 6.25647 4.4965L6.55713 3.9575Z" fill="#F3553C"/>
</svg>
