<svg width="55" height="55" viewBox="0 0 55 55" fill="none" xmlns="http://www.w3.org/2000/svg">
<path d="M41.7622 28.7212L27.4089 26.3596L29.468 24.8935L32.9149 25.3705L36.3576 24.8935L41.7622 28.7212ZM32.9149 1.59672C33.5993 1.59649 34.2769 1.73114 34.9092 1.99297C35.5415 2.25481 36.1159 2.63868 36.5997 3.12266C37.0835 3.60664 37.4672 4.18122 37.7289 4.81357C37.9905 5.44592 38.1249 6.12364 38.1245 6.80797C38.1245 9.68688 36.2897 12.0192 32.9149 12.0192C32.2226 12.0318 31.5347 11.9063 30.8915 11.65C30.2482 11.3938 29.6624 11.012 29.1684 10.5268C28.6743 10.0416 28.2819 9.46291 28.014 8.8244C27.7461 8.18589 27.6082 7.5004 27.6082 6.80797C27.6082 6.11554 27.7461 5.43005 28.014 4.79154C28.2819 4.15303 28.6743 3.5743 29.1684 3.08914C29.6624 2.60398 30.2482 2.22213 30.8915 1.96589C31.5347 1.70965 32.2226 1.58415 32.9149 1.59672ZM34.2117 39.2597V51.8538C34.2117 52.6085 34.5115 53.3322 35.0451 53.8658C35.5787 54.3994 36.3025 54.6992 37.0571 54.6992C37.8118 54.6992 38.5355 54.3994 39.0691 53.8658C39.6027 53.3322 39.9025 52.6085 39.9025 51.8538V39.2597C39.8843 38.5172 39.5765 37.8112 39.0448 37.2924C38.5132 36.7737 37.7999 36.4834 37.0571 36.4834C36.3144 36.4834 35.601 36.7737 35.0694 37.2924C34.5378 37.8112 34.23 38.5172 34.2117 39.2597ZM51.6416 46.4501C51.6413 46.8876 51.4676 47.3072 51.1584 47.6169C50.8493 47.9265 50.43 48.1009 49.9924 48.1018H41.268V39.8552H45.0416V31.6138C45.0416 30.7063 45.7815 29.9655 46.6898 29.9655H49.9924C50.8999 29.9655 51.6416 30.7055 51.6416 31.6138V46.4501ZM32.8505 48.1009H15.913C15.6962 48.1009 15.4815 48.0582 15.2812 47.9752C15.0809 47.8922 14.899 47.7705 14.7457 47.6171C14.5925 47.4637 14.471 47.2816 14.3882 47.0812C14.3053 46.8808 14.2628 46.666 14.263 46.4492V31.613C14.2635 31.1757 14.4375 30.7564 14.7469 30.4474C15.0563 30.1383 15.4757 29.9647 15.913 29.9647H19.2139C20.124 29.9647 20.8639 30.7046 20.8639 31.613V39.8544H32.8505V48.1009ZM23.9319 30.3076C23.8095 31.0521 23.9876 31.8148 24.4272 32.4281C24.8668 33.0414 25.5318 33.4551 26.2763 33.5784L38.702 35.6263C39.4465 35.7479 40.2088 35.5692 40.8217 35.1293C41.4346 34.6895 41.8479 34.0244 41.971 33.2802C42.032 32.9116 42.0196 32.5346 41.9348 32.1708C41.8499 31.8071 41.6941 31.4636 41.4764 31.16C41.2587 30.8565 40.9832 30.5988 40.6658 30.4018C40.3484 30.2048 39.9953 30.0724 39.6266 30.012L27.2009 27.9623C26.4566 27.8407 25.6943 28.0193 25.0814 28.459C24.4686 28.8986 24.0551 29.5635 23.9319 30.3076ZM9.91805 14.7099C5.86352 14.7099 2.56609 11.4125 2.56609 7.35539C2.56609 3.29828 5.86352 0 9.91805 0C13.9726 0 17.2743 3.29914 17.2743 7.35539C17.2743 11.4125 13.9726 14.7099 9.91805 14.7099ZM9.91805 12.8898C11.3856 12.8879 12.7925 12.3042 13.8303 11.2666C14.8681 10.2289 15.4521 8.82209 15.4541 7.35453C15.4541 4.30461 12.968 1.8193 9.91805 1.8193C6.86555 1.8193 4.38539 4.30461 4.38539 7.35453C4.3863 8.82184 4.96941 10.2288 6.00672 11.2666C7.04402 12.3044 8.45074 12.8882 9.91805 12.8898Z" fill="black"/>
<path d="M9.95586 8.32638C9.87157 8.36484 9.77892 8.38138 9.68653 8.37447C9.59413 8.36756 9.50498 8.33742 9.42735 8.28685C9.36127 8.24458 9.305 8.18866 9.26231 8.12285C9.21962 8.05704 9.1915 7.98286 9.17985 7.90529L9.17211 3.63075C9.17775 3.48786 9.23847 3.35269 9.34157 3.25358C9.44466 3.15448 9.58211 3.09912 9.72512 3.09912C9.86812 3.09912 10.0056 3.15448 10.1087 3.25358C10.2118 3.35269 10.2725 3.48786 10.2781 3.63075V6.94708L13.1132 5.61161C13.1787 5.58009 13.2498 5.56186 13.3224 5.55799C13.395 5.55412 13.4676 5.56467 13.5361 5.58905C13.6046 5.61342 13.6676 5.65113 13.7214 5.69999C13.7752 5.74886 13.8188 5.8079 13.8497 5.87372C13.9121 6.00642 13.9193 6.15842 13.8699 6.29645C13.8204 6.43448 13.7183 6.5473 13.5859 6.61021L9.95586 8.32552V8.32638ZM32.9149 16.1647L39.6705 15.0647V19.8136L43.0057 22.3222C43.3263 22.6453 43.1965 23.0131 43.1209 23.1171C43.0303 23.2377 42.8956 23.3175 42.7463 23.3391C42.597 23.3606 42.4453 23.3222 42.3242 23.2322L38.115 20.0508C37.6957 19.7674 37.182 19.6597 36.6842 19.7508C36.1864 19.8418 35.7441 20.1244 35.4523 20.5379C35.1605 20.9514 35.0425 21.4629 35.1235 21.9624C35.2046 22.462 35.4782 22.9098 35.8858 23.2099L43.0779 28.2613C43.4122 28.4968 43.8874 28.6575 44.3609 28.6575C44.7648 28.6575 45.2401 28.4899 45.5941 28.239C46.3487 27.7027 46.6263 26.7514 46.3702 25.8748L43.6992 17.9823C42.9859 16.0212 41.1873 13.7129 38.4854 13.7129H27.3436C24.6426 13.7129 22.8439 16.0212 22.1298 17.9823L19.4588 25.8748C19.2019 26.7514 19.4812 27.7036 20.2357 28.239C20.5872 28.4899 21.0641 28.6575 21.4663 28.6575C21.9424 28.6575 22.4185 28.4976 22.752 28.2613L29.9441 23.2099C30.3516 22.9098 30.6253 22.462 30.7063 21.9624C30.7874 21.4629 30.6693 20.9514 30.3775 20.5379C30.0857 20.1244 29.6435 19.8418 29.1456 19.7508C28.6478 19.6597 28.1341 19.7674 27.7148 20.0508L23.503 23.2322C23.3822 23.3219 23.2308 23.3601 23.0818 23.3386C22.9329 23.317 22.7986 23.2374 22.7081 23.1171C22.6318 22.992 22.6013 22.8443 22.622 22.6992C22.6427 22.5542 22.7133 22.4209 22.8216 22.3222C22.8216 22.3222 25.0834 20.6232 26.1585 19.8136V15.0647L32.9149 16.1656V16.1647Z" fill="black"/>
</svg>
