<svg width="61" height="61" viewBox="0 0 61 61" fill="none" xmlns="http://www.w3.org/2000/svg">
<path d="M34.3125 48.6095C34.3125 49.3636 34.0889 50.1007 33.67 50.7276C33.251 51.3546 32.6556 51.8433 31.959 52.1318C31.2623 52.4204 30.4958 52.4959 29.7562 52.3488C29.0167 52.2017 28.3373 51.8386 27.8041 51.3054C27.271 50.7722 26.9078 50.0929 26.7607 49.3533C26.6136 48.6138 26.6891 47.8472 26.9777 47.1505C27.2663 46.4539 27.7549 45.8585 28.3819 45.4395C29.0088 45.0206 29.7459 44.797 30.5 44.797C31.5111 44.797 32.4808 45.1987 33.1958 45.9137C33.9108 46.6287 34.3125 47.5984 34.3125 48.6095ZM57.0946 19.9943C49.596 13.8444 40.1979 10.4834 30.5 10.4834C20.8021 10.4834 11.4039 13.8444 3.90541 19.9943C3.61518 20.2326 3.37473 20.5257 3.19778 20.8569C3.02083 21.1882 2.91085 21.551 2.87412 21.9247C2.83739 22.2984 2.87463 22.6757 2.98371 23.035C3.09279 23.3943 3.27158 23.7287 3.50987 24.0189C3.74815 24.3091 4.04127 24.5496 4.37248 24.7265C4.70369 24.9035 5.06652 25.0135 5.44023 25.0502C5.81395 25.0869 6.19124 25.0497 6.55056 24.9406C6.90989 24.8315 7.24421 24.6527 7.53444 24.4144C14.0101 19.1044 22.1256 16.2025 30.5 16.2025C38.8743 16.2025 46.9899 19.1044 53.4655 24.4144C53.7558 24.6527 54.0901 24.8315 54.4494 24.9406C54.8087 25.0497 55.186 25.0869 55.5597 25.0502C55.9335 25.0135 56.2963 24.9035 56.6275 24.7265C56.9587 24.5496 57.2518 24.3091 57.4901 24.0189C57.7284 23.7287 57.9072 23.3943 58.0163 23.035C58.1253 22.6757 58.1626 22.2984 58.1258 21.9247C58.0891 21.551 57.9791 21.1882 57.8022 20.8569C57.6252 20.5257 57.3848 20.2326 57.0946 19.9943ZM49.4314 28.5081C44.0432 24.2424 37.3723 21.9215 30.5 21.9215C23.6277 21.9215 16.9568 24.2424 11.5685 28.5081C10.989 28.9838 10.6195 29.6681 10.5396 30.4135C10.4597 31.159 10.6758 31.9061 11.1413 32.4938C11.6068 33.0815 12.2846 33.4628 13.0286 33.5557C13.7725 33.6485 14.5232 33.4454 15.1189 32.9902C19.4967 29.5247 24.9165 27.6392 30.5 27.6392C36.0834 27.6392 41.5032 29.5247 45.881 32.9902C46.4767 33.4454 47.2274 33.6485 47.9714 33.5557C48.7154 33.4628 49.3931 33.0815 49.8587 32.4938C50.3242 31.9061 50.5403 31.159 50.4604 30.4135C50.3805 29.6681 50.011 28.9838 49.4314 28.5081ZM41.7159 37.0052C38.4563 34.6356 34.5299 33.3593 30.5 33.3593C26.4701 33.3593 22.5437 34.6356 19.2841 37.0052C18.6711 37.452 18.2607 38.124 18.1432 38.8734C18.0256 39.6228 18.2106 40.3882 18.6574 41.0012C19.1042 41.6142 19.7762 42.0246 20.5256 42.1421C21.275 42.2597 22.0404 42.0747 22.6534 41.6279C24.9338 39.97 27.6807 39.077 30.5 39.077C33.3193 39.077 36.0662 39.97 38.3466 41.6279C38.6501 41.8491 38.9942 42.0084 39.3593 42.0966C39.7244 42.1849 40.1033 42.2003 40.4744 42.1421C40.8454 42.0839 41.2014 41.9532 41.5219 41.7575C41.8425 41.5617 42.1213 41.3047 42.3426 41.0012C42.5638 40.6977 42.7231 40.3535 42.8113 39.9885C42.8995 39.6234 42.915 39.2445 42.8568 38.8734C42.7986 38.5024 42.6679 38.1464 42.4722 37.8258C42.2764 37.5053 42.0194 37.2265 41.7159 37.0052Z" fill="black"/>
</svg>
